<svg xmlns="http://www.w3.org/2000/svg" xmlns:xlink="http://www.w3.org/1999/xlink" width="500" zoomAndPan="magnify" viewBox="0 0 375 374.999991" height="500" preserveAspectRatio="xMidYMid meet" version="1.0"><defs><g/><clipPath id="86c66c44fa"><path d="M 121.246094 94.429688 L 253.996094 94.429688 L 253.996094 207.679688 L 121.246094 207.679688 Z M 121.246094 94.429688 " clip-rule="nonzero"/></clipPath></defs><rect x="-37.5" width="450" fill="#ffffff" y="-37.499999" height="449.999989" fill-opacity="1"/><rect x="-37.5" width="450" fill="#ffffff" y="-37.499999" height="449.999989" fill-opacity="1"/><g clip-path="url(#86c66c44fa)"><path fill="#2f3336" d="M 213.425781 194.929688 L 226.042969 207.546875 L 253.75 207.546875 L 226.308594 180.105469 C 231.417969 171.597656 234.359375 161.636719 234.359375 151 C 234.359375 119.765625 209.046875 94.433594 177.8125 94.433594 C 174.796875 94.433594 171.851562 94.679688 168.96875 95.113281 L 189.527344 115.691406 C 204.332031 120.59375 215.007812 134.554688 215.007812 151 C 215.007812 156.246094 213.914062 161.242188 211.953125 165.769531 L 204.238281 158.054688 L 176.550781 158.054688 Z M 177.8125 207.546875 L 202.410156 207.546875 L 198.503906 203.644531 L 182.71875 187.875 C 181.113281 188.082031 179.472656 188.195312 177.8125 188.195312 C 157.253906 188.195312 140.597656 171.542969 140.597656 151 C 140.597656 135.703125 149.824219 122.574219 163.007812 116.859375 L 148.671875 102.507812 C 132.242188 112.410156 121.246094 130.421875 121.246094 151 C 121.246094 182.234375 146.578125 207.546875 177.8125 207.546875 Z M 177.8125 207.546875 " fill-opacity="1" fill-rule="evenodd"/></g><g fill="#2f3336" fill-opacity="1"><g transform="translate(95.168655, 238.362031)"><g><path d="M 8.84375 -18.34375 C 9.570312 -18.34375 10.253906 -18.203125 10.890625 -17.921875 C 11.523438 -17.648438 12.082031 -17.28125 12.5625 -16.8125 C 13.039062 -16.351562 13.414062 -15.804688 13.6875 -15.171875 C 13.96875 -14.546875 14.109375 -13.867188 14.109375 -13.140625 C 14.109375 -12.421875 13.96875 -11.738281 13.6875 -11.09375 C 13.414062 -10.457031 13.039062 -9.90625 12.5625 -9.4375 C 12.082031 -8.976562 11.523438 -8.613281 10.890625 -8.34375 C 10.253906 -8.070312 9.570312 -7.9375 8.84375 -7.9375 L 4.09375 -7.921875 L 4.09375 0 L 1.390625 0 L 1.390625 -18.34375 Z M 8.84375 -10.453125 C 9.207031 -10.453125 9.546875 -10.523438 9.859375 -10.671875 C 10.179688 -10.816406 10.460938 -11.007812 10.703125 -11.25 C 10.953125 -11.5 11.144531 -11.789062 11.28125 -12.125 C 11.414062 -12.457031 11.484375 -12.816406 11.484375 -13.203125 C 11.484375 -13.578125 11.414062 -13.925781 11.28125 -14.25 C 11.144531 -14.582031 10.953125 -14.875 10.703125 -15.125 C 10.460938 -15.375 10.179688 -15.570312 9.859375 -15.71875 C 9.546875 -15.863281 9.207031 -15.9375 8.84375 -15.9375 L 4.09375 -15.9375 L 4.09375 -10.453125 Z M 8.84375 -10.453125 "/></g></g></g><g fill="#2f3336" fill-opacity="1"><g transform="translate(110.224581, 238.362031)"><g><path d="M 13.203125 -12.390625 L 13.203125 0 L 11.078125 0 L 10.6875 -1.421875 C 10.257812 -0.847656 9.707031 -0.414062 9.03125 -0.125 C 8.351562 0.164062 7.671875 0.3125 6.984375 0.3125 C 6.117188 0.3125 5.3125 0.144531 4.5625 -0.1875 C 3.8125 -0.53125 3.15625 -0.992188 2.59375 -1.578125 C 2.039062 -2.160156 1.597656 -2.847656 1.265625 -3.640625 C 0.941406 -4.441406 0.78125 -5.289062 0.78125 -6.1875 C 0.78125 -7.082031 0.941406 -7.925781 1.265625 -8.71875 C 1.597656 -9.507812 2.039062 -10.195312 2.59375 -10.78125 C 3.15625 -11.375 3.8125 -11.835938 4.5625 -12.171875 C 5.3125 -12.503906 6.117188 -12.671875 6.984375 -12.671875 C 7.671875 -12.671875 8.332031 -12.535156 8.96875 -12.265625 C 9.613281 -12.003906 10.1875 -11.585938 10.6875 -11.015625 L 11.078125 -12.390625 Z M 6.984375 -1.921875 C 7.484375 -1.921875 7.957031 -2.03125 8.40625 -2.25 C 8.851562 -2.476562 9.238281 -2.785156 9.5625 -3.171875 C 9.894531 -3.554688 10.15625 -4.003906 10.34375 -4.515625 C 10.539062 -5.035156 10.640625 -5.59375 10.640625 -6.1875 C 10.640625 -6.769531 10.539062 -7.316406 10.34375 -7.828125 C 10.15625 -8.347656 9.894531 -8.800781 9.5625 -9.1875 C 9.238281 -9.582031 8.851562 -9.890625 8.40625 -10.109375 C 7.957031 -10.335938 7.484375 -10.453125 6.984375 -10.453125 C 6.484375 -10.453125 6.007812 -10.335938 5.5625 -10.109375 C 5.113281 -9.890625 4.722656 -9.582031 4.390625 -9.1875 C 4.066406 -8.800781 3.8125 -8.347656 3.625 -7.828125 C 3.4375 -7.316406 3.34375 -6.769531 3.34375 -6.1875 C 3.34375 -5.59375 3.4375 -5.035156 3.625 -4.515625 C 3.8125 -4.003906 4.066406 -3.554688 4.390625 -3.171875 C 4.722656 -2.785156 5.113281 -2.476562 5.5625 -2.25 C 6.007812 -2.03125 6.484375 -1.921875 6.984375 -1.921875 Z M 6.984375 -1.921875 "/></g></g></g><g fill="#2f3336" fill-opacity="1"><g transform="translate(124.5303, 238.362031)"><g><path d="M 7.21875 -2.59375 C 7.375 -2.726562 7.507812 -2.878906 7.625 -3.046875 C 7.75 -3.222656 7.8125 -3.421875 7.8125 -3.640625 C 7.8125 -3.921875 7.710938 -4.15625 7.515625 -4.34375 C 7.316406 -4.53125 7.070312 -4.6875 6.78125 -4.8125 C 6.5 -4.945312 6.203125 -5.050781 5.890625 -5.125 C 5.585938 -5.195312 5.332031 -5.253906 5.125 -5.296875 C 4.550781 -5.441406 4.015625 -5.613281 3.515625 -5.8125 C 3.015625 -6.007812 2.578125 -6.25 2.203125 -6.53125 C 1.835938 -6.8125 1.546875 -7.144531 1.328125 -7.53125 C 1.117188 -7.925781 1.015625 -8.390625 1.015625 -8.921875 C 1.015625 -9.421875 1.132812 -9.890625 1.375 -10.328125 C 1.613281 -10.773438 1.9375 -11.164062 2.34375 -11.5 C 2.75 -11.832031 3.222656 -12.097656 3.765625 -12.296875 C 4.304688 -12.492188 4.878906 -12.59375 5.484375 -12.59375 C 6.015625 -12.59375 6.519531 -12.515625 7 -12.359375 C 7.488281 -12.210938 7.925781 -12.003906 8.3125 -11.734375 C 8.707031 -11.460938 9.035156 -11.132812 9.296875 -10.75 C 9.566406 -10.375 9.742188 -9.957031 9.828125 -9.5 L 7.578125 -8.953125 C 7.472656 -9.367188 7.25 -9.710938 6.90625 -9.984375 C 6.5625 -10.265625 6.085938 -10.40625 5.484375 -10.40625 C 5.273438 -10.40625 5.054688 -10.375 4.828125 -10.3125 C 4.609375 -10.25 4.40625 -10.15625 4.21875 -10.03125 C 4.03125 -9.914062 3.867188 -9.769531 3.734375 -9.59375 C 3.609375 -9.425781 3.546875 -9.226562 3.546875 -9 C 3.546875 -8.757812 3.617188 -8.550781 3.765625 -8.375 C 3.910156 -8.207031 4.085938 -8.066406 4.296875 -7.953125 C 4.503906 -7.835938 4.726562 -7.742188 4.96875 -7.671875 C 5.207031 -7.609375 5.429688 -7.550781 5.640625 -7.5 C 6.554688 -7.28125 7.316406 -7.039062 7.921875 -6.78125 C 8.523438 -6.519531 9.003906 -6.234375 9.359375 -5.921875 C 9.722656 -5.609375 9.976562 -5.265625 10.125 -4.890625 C 10.269531 -4.523438 10.34375 -4.109375 10.34375 -3.640625 C 10.34375 -3.097656 10.21875 -2.582031 9.96875 -2.09375 C 9.71875 -1.613281 9.375 -1.195312 8.9375 -0.84375 C 8.5 -0.488281 7.972656 -0.210938 7.359375 -0.015625 C 6.742188 0.179688 6.082031 0.28125 5.375 0.28125 C 4.3125 0.28125 3.359375 0.0195312 2.515625 -0.5 C 1.679688 -1.03125 1.117188 -1.734375 0.828125 -2.609375 L 2.953125 -3.578125 C 3.222656 -2.972656 3.570312 -2.5625 4 -2.34375 C 4.4375 -2.125 4.929688 -2.015625 5.484375 -2.015625 C 6.171875 -2.015625 6.75 -2.207031 7.21875 -2.59375 Z M 7.21875 -2.59375 "/></g></g></g><g fill="#2f3336" fill-opacity="1"><g transform="translate(135.654094, 238.362031)"><g><path d="M 8.171875 -0.03125 C 7.460938 0.21875 6.765625 0.363281 6.078125 0.40625 C 5.390625 0.457031 4.769531 0.359375 4.21875 0.109375 C 3.664062 -0.140625 3.21875 -0.578125 2.875 -1.203125 C 2.53125 -1.828125 2.359375 -2.710938 2.359375 -3.859375 L 2.359375 -10.140625 L 0.546875 -10.140625 L 0.546875 -11.875 L 2.359375 -12.390625 L 2.359375 -15.703125 L 4.859375 -15.703125 L 4.859375 -12.390625 L 8.234375 -12.390625 L 8.234375 -10.140625 L 4.859375 -10.140625 L 4.859375 -3.46875 C 4.859375 -3.050781 4.90625 -2.722656 5 -2.484375 C 5.101562 -2.242188 5.265625 -2.0625 5.484375 -1.9375 C 5.710938 -1.820312 6.003906 -1.765625 6.359375 -1.765625 C 6.722656 -1.765625 7.164062 -1.796875 7.6875 -1.859375 Z M 8.171875 -0.03125 "/></g></g></g><g fill="#2f3336" fill-opacity="1"><g transform="translate(144.501388, 238.362031)"><g/></g></g><g fill="#2f3336" fill-opacity="1"><g transform="translate(151.253268, 238.362031)"><g><path d="M 6.703125 -8.59375 L 0.234375 -18.34375 L 3.46875 -18.34375 L 8.046875 -11.46875 L 12.625 -18.34375 L 15.890625 -18.34375 L 9.421875 -8.59375 L 9.421875 0 L 6.703125 0 Z M 6.703125 -8.59375 "/></g></g></g><g fill="#2f3336" fill-opacity="1"><g transform="translate(167.473308, 238.362031)"><g><path d="M 7.328125 0.3125 C 6.429688 0.3125 5.585938 0.144531 4.796875 -0.1875 C 4.015625 -0.53125 3.328125 -0.992188 2.734375 -1.578125 C 2.148438 -2.160156 1.691406 -2.847656 1.359375 -3.640625 C 1.023438 -4.441406 0.859375 -5.289062 0.859375 -6.1875 C 0.859375 -7.082031 1.015625 -7.925781 1.328125 -8.71875 C 1.648438 -9.507812 2.082031 -10.195312 2.625 -10.78125 C 3.164062 -11.375 3.796875 -11.835938 4.515625 -12.171875 C 5.242188 -12.503906 6.023438 -12.671875 6.859375 -12.671875 C 7.703125 -12.671875 8.476562 -12.523438 9.1875 -12.234375 C 9.90625 -11.941406 10.523438 -11.484375 11.046875 -10.859375 C 11.578125 -10.242188 11.988281 -9.457031 12.28125 -8.5 C 12.582031 -7.539062 12.734375 -6.398438 12.734375 -5.078125 L 3.515625 -5.078125 C 3.640625 -4.628906 3.828125 -4.207031 4.078125 -3.8125 C 4.335938 -3.425781 4.644531 -3.085938 5 -2.796875 C 5.351562 -2.515625 5.75 -2.296875 6.1875 -2.140625 C 6.632812 -1.992188 7.097656 -1.921875 7.578125 -1.921875 C 8.234375 -1.921875 8.84375 -2.039062 9.40625 -2.28125 C 9.96875 -2.519531 10.445312 -2.835938 10.84375 -3.234375 L 12.390625 -1.6875 C 11.785156 -1.082031 11.046875 -0.597656 10.171875 -0.234375 C 9.304688 0.128906 8.359375 0.3125 7.328125 0.3125 Z M 6.859375 -10.40625 C 6.460938 -10.40625 6.085938 -10.328125 5.734375 -10.171875 C 5.378906 -10.015625 5.050781 -9.796875 4.75 -9.515625 C 4.445312 -9.242188 4.1875 -8.914062 3.96875 -8.53125 C 3.75 -8.15625 3.59375 -7.742188 3.5 -7.296875 L 10.046875 -7.296875 C 10.003906 -7.710938 9.90625 -8.109375 9.75 -8.484375 C 9.59375 -8.867188 9.375 -9.203125 9.09375 -9.484375 C 8.820312 -9.765625 8.5 -9.988281 8.125 -10.15625 C 7.757812 -10.320312 7.335938 -10.40625 6.859375 -10.40625 Z M 6.859375 -10.40625 "/></g></g></g><g fill="#2f3336" fill-opacity="1"><g transform="translate(181.184029, 238.362031)"><g><path d="M 13.203125 -12.390625 L 13.203125 0 L 11.078125 0 L 10.6875 -1.421875 C 10.257812 -0.847656 9.707031 -0.414062 9.03125 -0.125 C 8.351562 0.164062 7.671875 0.3125 6.984375 0.3125 C 6.117188 0.3125 5.3125 0.144531 4.5625 -0.1875 C 3.8125 -0.53125 3.15625 -0.992188 2.59375 -1.578125 C 2.039062 -2.160156 1.597656 -2.847656 1.265625 -3.640625 C 0.941406 -4.441406 0.78125 -5.289062 0.78125 -6.1875 C 0.78125 -7.082031 0.941406 -7.925781 1.265625 -8.71875 C 1.597656 -9.507812 2.039062 -10.195312 2.59375 -10.78125 C 3.15625 -11.375 3.8125 -11.835938 4.5625 -12.171875 C 5.3125 -12.503906 6.117188 -12.671875 6.984375 -12.671875 C 7.671875 -12.671875 8.332031 -12.535156 8.96875 -12.265625 C 9.613281 -12.003906 10.1875 -11.585938 10.6875 -11.015625 L 11.078125 -12.390625 Z M 6.984375 -1.921875 C 7.484375 -1.921875 7.957031 -2.03125 8.40625 -2.25 C 8.851562 -2.476562 9.238281 -2.785156 9.5625 -3.171875 C 9.894531 -3.554688 10.15625 -4.003906 10.34375 -4.515625 C 10.539062 -5.035156 10.640625 -5.59375 10.640625 -6.1875 C 10.640625 -6.769531 10.539062 -7.316406 10.34375 -7.828125 C 10.15625 -8.347656 9.894531 -8.800781 9.5625 -9.1875 C 9.238281 -9.582031 8.851562 -9.890625 8.40625 -10.109375 C 7.957031 -10.335938 7.484375 -10.453125 6.984375 -10.453125 C 6.484375 -10.453125 6.007812 -10.335938 5.5625 -10.109375 C 5.113281 -9.890625 4.722656 -9.582031 4.390625 -9.1875 C 4.066406 -8.800781 3.8125 -8.347656 3.625 -7.828125 C 3.4375 -7.316406 3.34375 -6.769531 3.34375 -6.1875 C 3.34375 -5.59375 3.4375 -5.035156 3.625 -4.515625 C 3.8125 -4.003906 4.066406 -3.554688 4.390625 -3.171875 C 4.722656 -2.785156 5.113281 -2.476562 5.5625 -2.25 C 6.007812 -2.03125 6.484375 -1.921875 6.984375 -1.921875 Z M 6.984375 -1.921875 "/></g></g></g><g fill="#2f3336" fill-opacity="1"><g transform="translate(195.489747, 238.362031)"><g><path d="M 8.921875 -10.09375 C 8.804688 -10.144531 8.6875 -10.195312 8.5625 -10.25 C 8.457031 -10.28125 8.335938 -10.3125 8.203125 -10.34375 C 8.066406 -10.382812 7.921875 -10.40625 7.765625 -10.40625 C 7.265625 -10.40625 6.796875 -10.320312 6.359375 -10.15625 C 5.929688 -9.988281 5.5625 -9.765625 5.25 -9.484375 C 4.9375 -9.210938 4.691406 -8.890625 4.515625 -8.515625 C 4.335938 -8.148438 4.25 -7.757812 4.25 -7.34375 L 4.21875 0 L 1.703125 0 L 1.703125 -12.390625 L 3.703125 -12.390625 L 4.21875 -11.015625 C 4.5625 -11.515625 5.015625 -11.914062 5.578125 -12.21875 C 6.140625 -12.519531 6.84375 -12.671875 7.6875 -12.671875 C 8.238281 -12.671875 8.867188 -12.597656 9.578125 -12.453125 Z M 8.921875 -10.09375 "/></g></g></g><g fill="#2f3336" fill-opacity="1"><g transform="translate(205.268335, 238.362031)"><g/></g></g><g fill="#2f3336" fill-opacity="1"><g transform="translate(212.020216, 238.362031)"><g><path d="M 19.640625 0.234375 L 16.6875 -0.46875 L 15.390625 -1.734375 C 14.628906 -1.148438 13.789062 -0.675781 12.875 -0.3125 C 11.96875 0.0507812 11 0.234375 9.96875 0.234375 C 8.71875 0.234375 7.539062 -0.015625 6.4375 -0.515625 C 5.332031 -1.015625 4.367188 -1.691406 3.546875 -2.546875 C 2.734375 -3.398438 2.082031 -4.394531 1.59375 -5.53125 C 1.113281 -6.675781 0.875 -7.894531 0.875 -9.1875 C 0.875 -10.457031 1.113281 -11.664062 1.59375 -12.8125 C 2.082031 -13.96875 2.734375 -14.972656 3.546875 -15.828125 C 4.367188 -16.679688 5.332031 -17.359375 6.4375 -17.859375 C 7.539062 -18.359375 8.71875 -18.609375 9.96875 -18.609375 C 11.207031 -18.609375 12.378906 -18.359375 13.484375 -17.859375 C 14.585938 -17.359375 15.550781 -16.679688 16.375 -15.828125 C 17.207031 -14.972656 17.859375 -13.96875 18.328125 -12.8125 C 18.804688 -11.664062 19.046875 -10.457031 19.046875 -9.1875 C 19.046875 -8.101562 18.875 -7.082031 18.53125 -6.125 C 18.1875 -5.164062 17.71875 -4.296875 17.125 -3.515625 L 18.140625 -2.484375 L 20.265625 -1.890625 Z M 15.234375 -5.40625 C 15.585938 -5.957031 15.851562 -6.546875 16.03125 -7.171875 C 16.207031 -7.804688 16.296875 -8.476562 16.296875 -9.1875 C 16.296875 -10.132812 16.128906 -11.019531 15.796875 -11.84375 C 15.460938 -12.675781 15.007812 -13.398438 14.4375 -14.015625 C 13.863281 -14.640625 13.191406 -15.128906 12.421875 -15.484375 C 11.660156 -15.835938 10.84375 -16.015625 9.96875 -16.015625 C 9.082031 -16.015625 8.253906 -15.835938 7.484375 -15.484375 C 6.722656 -15.128906 6.054688 -14.640625 5.484375 -14.015625 C 4.910156 -13.398438 4.457031 -12.675781 4.125 -11.84375 C 3.800781 -11.019531 3.640625 -10.132812 3.640625 -9.1875 C 3.640625 -8.238281 3.800781 -7.34375 4.125 -6.5 C 4.457031 -5.65625 4.910156 -4.914062 5.484375 -4.28125 C 6.054688 -3.65625 6.722656 -3.160156 7.484375 -2.796875 C 8.253906 -2.429688 9.082031 -2.25 9.96875 -2.25 C 10.632812 -2.25 11.273438 -2.363281 11.890625 -2.59375 C 12.503906 -2.832031 13.066406 -3.148438 13.578125 -3.546875 L 11.203125 -5.921875 L 12.984375 -7.703125 Z M 15.234375 -5.40625 "/></g></g></g><g fill="#2f3336" fill-opacity="1"><g transform="translate(232.560419, 238.362031)"><g><path d="M 9.828125 -1.109375 C 9.398438 -0.710938 8.894531 -0.382812 8.3125 -0.125 C 7.738281 0.132812 7.097656 0.265625 6.390625 0.265625 C 5.941406 0.265625 5.429688 0.195312 4.859375 0.0625 C 4.296875 -0.0625 3.765625 -0.3125 3.265625 -0.6875 C 2.773438 -1.070312 2.363281 -1.597656 2.03125 -2.265625 C 1.695312 -2.929688 1.53125 -3.796875 1.53125 -4.859375 L 1.53125 -12.390625 L 3.90625 -12.390625 L 3.90625 -4.859375 C 3.90625 -4.328125 3.988281 -3.875 4.15625 -3.5 C 4.320312 -3.132812 4.535156 -2.835938 4.796875 -2.609375 C 5.066406 -2.390625 5.375 -2.226562 5.71875 -2.125 C 6.0625 -2.019531 6.414062 -1.96875 6.78125 -1.96875 C 7.050781 -1.96875 7.363281 -2.019531 7.71875 -2.125 C 8.070312 -2.226562 8.40625 -2.394531 8.71875 -2.625 C 9.03125 -2.851562 9.289062 -3.148438 9.5 -3.515625 C 9.71875 -3.878906 9.828125 -4.320312 9.828125 -4.84375 L 9.828125 -12.390625 L 12.34375 -12.390625 L 12.34375 0 L 10.34375 0 Z M 9.828125 -1.109375 "/></g></g></g><g fill="#2f3336" fill-opacity="1"><g transform="translate(246.400483, 238.362031)"><g><path d="M 7.328125 0.3125 C 6.429688 0.3125 5.585938 0.144531 4.796875 -0.1875 C 4.015625 -0.53125 3.328125 -0.992188 2.734375 -1.578125 C 2.148438 -2.160156 1.691406 -2.847656 1.359375 -3.640625 C 1.023438 -4.441406 0.859375 -5.289062 0.859375 -6.1875 C 0.859375 -7.082031 1.015625 -7.925781 1.328125 -8.71875 C 1.648438 -9.507812 2.082031 -10.195312 2.625 -10.78125 C 3.164062 -11.375 3.796875 -11.835938 4.515625 -12.171875 C 5.242188 -12.503906 6.023438 -12.671875 6.859375 -12.671875 C 7.703125 -12.671875 8.476562 -12.523438 9.1875 -12.234375 C 9.90625 -11.941406 10.523438 -11.484375 11.046875 -10.859375 C 11.578125 -10.242188 11.988281 -9.457031 12.28125 -8.5 C 12.582031 -7.539062 12.734375 -6.398438 12.734375 -5.078125 L 3.515625 -5.078125 C 3.640625 -4.628906 3.828125 -4.207031 4.078125 -3.8125 C 4.335938 -3.425781 4.644531 -3.085938 5 -2.796875 C 5.351562 -2.515625 5.75 -2.296875 6.1875 -2.140625 C 6.632812 -1.992188 7.097656 -1.921875 7.578125 -1.921875 C 8.234375 -1.921875 8.84375 -2.039062 9.40625 -2.28125 C 9.96875 -2.519531 10.445312 -2.835938 10.84375 -3.234375 L 12.390625 -1.6875 C 11.785156 -1.082031 11.046875 -0.597656 10.171875 -0.234375 C 9.304688 0.128906 8.359375 0.3125 7.328125 0.3125 Z M 6.859375 -10.40625 C 6.460938 -10.40625 6.085938 -10.328125 5.734375 -10.171875 C 5.378906 -10.015625 5.050781 -9.796875 4.75 -9.515625 C 4.445312 -9.242188 4.1875 -8.914062 3.96875 -8.53125 C 3.75 -8.15625 3.59375 -7.742188 3.5 -7.296875 L 10.046875 -7.296875 C 10.003906 -7.710938 9.90625 -8.109375 9.75 -8.484375 C 9.59375 -8.867188 9.375 -9.203125 9.09375 -9.484375 C 8.820312 -9.765625 8.5 -9.988281 8.125 -10.15625 C 7.757812 -10.320312 7.335938 -10.40625 6.859375 -10.40625 Z M 6.859375 -10.40625 "/></g></g></g><g fill="#2f3336" fill-opacity="1"><g transform="translate(260.111212, 238.362031)"><g><path d="M 7.21875 -2.59375 C 7.375 -2.726562 7.507812 -2.878906 7.625 -3.046875 C 7.75 -3.222656 7.8125 -3.421875 7.8125 -3.640625 C 7.8125 -3.921875 7.710938 -4.15625 7.515625 -4.34375 C 7.316406 -4.53125 7.070312 -4.6875 6.78125 -4.8125 C 6.5 -4.945312 6.203125 -5.050781 5.890625 -5.125 C 5.585938 -5.195312 5.332031 -5.253906 5.125 -5.296875 C 4.550781 -5.441406 4.015625 -5.613281 3.515625 -5.8125 C 3.015625 -6.007812 2.578125 -6.25 2.203125 -6.53125 C 1.835938 -6.8125 1.546875 -7.144531 1.328125 -7.53125 C 1.117188 -7.925781 1.015625 -8.390625 1.015625 -8.921875 C 1.015625 -9.421875 1.132812 -9.890625 1.375 -10.328125 C 1.613281 -10.773438 1.9375 -11.164062 2.34375 -11.5 C 2.75 -11.832031 3.222656 -12.097656 3.765625 -12.296875 C 4.304688 -12.492188 4.878906 -12.59375 5.484375 -12.59375 C 6.015625 -12.59375 6.519531 -12.515625 7 -12.359375 C 7.488281 -12.210938 7.925781 -12.003906 8.3125 -11.734375 C 8.707031 -11.460938 9.035156 -11.132812 9.296875 -10.75 C 9.566406 -10.375 9.742188 -9.957031 9.828125 -9.5 L 7.578125 -8.953125 C 7.472656 -9.367188 7.25 -9.710938 6.90625 -9.984375 C 6.5625 -10.265625 6.085938 -10.40625 5.484375 -10.40625 C 5.273438 -10.40625 5.054688 -10.375 4.828125 -10.3125 C 4.609375 -10.25 4.40625 -10.15625 4.21875 -10.03125 C 4.03125 -9.914062 3.867188 -9.769531 3.734375 -9.59375 C 3.609375 -9.425781 3.546875 -9.226562 3.546875 -9 C 3.546875 -8.757812 3.617188 -8.550781 3.765625 -8.375 C 3.910156 -8.207031 4.085938 -8.066406 4.296875 -7.953125 C 4.503906 -7.835938 4.726562 -7.742188 4.96875 -7.671875 C 5.207031 -7.609375 5.429688 -7.550781 5.640625 -7.5 C 6.554688 -7.28125 7.316406 -7.039062 7.921875 -6.78125 C 8.523438 -6.519531 9.003906 -6.234375 9.359375 -5.921875 C 9.722656 -5.609375 9.976562 -5.265625 10.125 -4.890625 C 10.269531 -4.523438 10.34375 -4.109375 10.34375 -3.640625 C 10.34375 -3.097656 10.21875 -2.582031 9.96875 -2.09375 C 9.71875 -1.613281 9.375 -1.195312 8.9375 -0.84375 C 8.5 -0.488281 7.972656 -0.210938 7.359375 -0.015625 C 6.742188 0.179688 6.082031 0.28125 5.375 0.28125 C 4.3125 0.28125 3.359375 0.0195312 2.515625 -0.5 C 1.679688 -1.03125 1.117188 -1.734375 0.828125 -2.609375 L 2.953125 -3.578125 C 3.222656 -2.972656 3.570312 -2.5625 4 -2.34375 C 4.4375 -2.125 4.929688 -2.015625 5.484375 -2.015625 C 6.171875 -2.015625 6.75 -2.207031 7.21875 -2.59375 Z M 7.21875 -2.59375 "/></g></g></g><g fill="#2f3336" fill-opacity="1"><g transform="translate(271.234998, 238.362031)"><g><path d="M 8.171875 -0.03125 C 7.460938 0.21875 6.765625 0.363281 6.078125 0.40625 C 5.390625 0.457031 4.769531 0.359375 4.21875 0.109375 C 3.664062 -0.140625 3.21875 -0.578125 2.875 -1.203125 C 2.53125 -1.828125 2.359375 -2.710938 2.359375 -3.859375 L 2.359375 -10.140625 L 0.546875 -10.140625 L 0.546875 -11.875 L 2.359375 -12.390625 L 2.359375 -15.703125 L 4.859375 -15.703125 L 4.859375 -12.390625 L 8.234375 -12.390625 L 8.234375 -10.140625 L 4.859375 -10.140625 L 4.859375 -3.46875 C 4.859375 -3.050781 4.90625 -2.722656 5 -2.484375 C 5.101562 -2.242188 5.265625 -2.0625 5.484375 -1.9375 C 5.710938 -1.820312 6.003906 -1.765625 6.359375 -1.765625 C 6.722656 -1.765625 7.164062 -1.796875 7.6875 -1.859375 Z M 8.171875 -0.03125 "/></g></g></g><g fill="#2f3336" fill-opacity="1"><g transform="translate(280.082292, 238.362031)"><g><path d="M 4.0625 0 L 1.546875 0 L 1.546875 -12.390625 L 4.03125 -12.390625 Z M 2.796875 -15.078125 C 2.347656 -15.078125 1.96875 -15.238281 1.65625 -15.5625 C 1.34375 -15.882812 1.1875 -16.269531 1.1875 -16.71875 C 1.1875 -17.164062 1.34375 -17.539062 1.65625 -17.84375 C 1.96875 -18.15625 2.347656 -18.3125 2.796875 -18.3125 C 3.242188 -18.3125 3.625 -18.15625 3.9375 -17.84375 C 4.25 -17.539062 4.40625 -17.164062 4.40625 -16.71875 C 4.40625 -16.269531 4.25 -15.882812 3.9375 -15.5625 C 3.625 -15.238281 3.242188 -15.078125 2.796875 -15.078125 Z M 2.796875 -15.078125 "/></g></g></g><g fill="#2f3336" fill-opacity="1"><g transform="translate(285.514849, 238.362031)"><g><path d="M 6.875 0.3125 C 6.019531 0.3125 5.21875 0.144531 4.46875 -0.1875 C 3.71875 -0.53125 3.0625 -0.992188 2.5 -1.578125 C 1.9375 -2.160156 1.488281 -2.847656 1.15625 -3.640625 C 0.832031 -4.441406 0.671875 -5.289062 0.671875 -6.1875 C 0.671875 -7.082031 0.832031 -7.925781 1.15625 -8.71875 C 1.488281 -9.507812 1.9375 -10.195312 2.5 -10.78125 C 3.0625 -11.375 3.71875 -11.835938 4.46875 -12.171875 C 5.21875 -12.503906 6.019531 -12.671875 6.875 -12.671875 C 7.726562 -12.671875 8.53125 -12.503906 9.28125 -12.171875 C 10.039062 -11.835938 10.703125 -11.375 11.265625 -10.78125 C 11.828125 -10.195312 12.269531 -9.507812 12.59375 -8.71875 C 12.925781 -7.925781 13.09375 -7.082031 13.09375 -6.1875 C 13.09375 -5.289062 12.925781 -4.441406 12.59375 -3.640625 C 12.269531 -2.847656 11.828125 -2.160156 11.265625 -1.578125 C 10.703125 -0.992188 10.039062 -0.53125 9.28125 -0.1875 C 8.53125 0.144531 7.726562 0.3125 6.875 0.3125 Z M 6.875 -10.421875 C 6.375 -10.421875 5.898438 -10.304688 5.453125 -10.078125 C 5.003906 -9.859375 4.613281 -9.554688 4.28125 -9.171875 C 3.945312 -8.796875 3.679688 -8.347656 3.484375 -7.828125 C 3.296875 -7.316406 3.203125 -6.769531 3.203125 -6.1875 C 3.203125 -5.59375 3.296875 -5.035156 3.484375 -4.515625 C 3.679688 -4.003906 3.945312 -3.554688 4.28125 -3.171875 C 4.613281 -2.785156 5.003906 -2.476562 5.453125 -2.25 C 5.898438 -2.03125 6.375 -1.921875 6.875 -1.921875 C 7.382812 -1.921875 7.863281 -2.03125 8.3125 -2.25 C 8.757812 -2.476562 9.144531 -2.785156 9.46875 -3.171875 C 9.800781 -3.554688 10.0625 -4.003906 10.25 -4.515625 C 10.4375 -5.035156 10.53125 -5.59375 10.53125 -6.1875 C 10.53125 -6.769531 10.4375 -7.316406 10.25 -7.828125 C 10.0625 -8.347656 9.800781 -8.796875 9.46875 -9.171875 C 9.144531 -9.554688 8.757812 -9.859375 8.3125 -10.078125 C 7.863281 -10.304688 7.382812 -10.421875 6.875 -10.421875 Z M 6.875 -10.421875 "/></g></g></g><g fill="#2f3336" fill-opacity="1"><g transform="translate(299.173828, 238.362031)"><g><path d="M 3.90625 0 L 1.390625 0 L 1.390625 -12.390625 L 3.390625 -12.390625 L 3.90625 -11.3125 C 4.320312 -11.707031 4.820312 -12.03125 5.40625 -12.28125 C 5.988281 -12.539062 6.628906 -12.671875 7.328125 -12.671875 C 7.773438 -12.671875 8.28125 -12.601562 8.84375 -12.46875 C 9.414062 -12.332031 9.945312 -12.070312 10.4375 -11.6875 C 10.925781 -11.3125 11.335938 -10.785156 11.671875 -10.109375 C 12.015625 -9.441406 12.1875 -8.570312 12.1875 -7.5 L 12.1875 0 L 9.8125 0 L 9.8125 -7.53125 C 9.8125 -8.0625 9.726562 -8.507812 9.5625 -8.875 C 9.394531 -9.25 9.175781 -9.546875 8.90625 -9.765625 C 8.644531 -9.992188 8.34375 -10.15625 8 -10.25 C 7.664062 -10.351562 7.316406 -10.40625 6.953125 -10.40625 C 6.679688 -10.40625 6.367188 -10.351562 6.015625 -10.25 C 5.660156 -10.144531 5.328125 -9.972656 5.015625 -9.734375 C 4.703125 -9.503906 4.4375 -9.210938 4.21875 -8.859375 C 4.007812 -8.503906 3.90625 -8.070312 3.90625 -7.5625 Z M 3.90625 0 "/></g></g></g><g fill="#2f3336" fill-opacity="1"><g transform="translate(312.988026, 238.362031)"><g><path d="M 7.21875 -2.59375 C 7.375 -2.726562 7.507812 -2.878906 7.625 -3.046875 C 7.75 -3.222656 7.8125 -3.421875 7.8125 -3.640625 C 7.8125 -3.921875 7.710938 -4.15625 7.515625 -4.34375 C 7.316406 -4.53125 7.070312 -4.6875 6.78125 -4.8125 C 6.5 -4.945312 6.203125 -5.050781 5.890625 -5.125 C 5.585938 -5.195312 5.332031 -5.253906 5.125 -5.296875 C 4.550781 -5.441406 4.015625 -5.613281 3.515625 -5.8125 C 3.015625 -6.007812 2.578125 -6.25 2.203125 -6.53125 C 1.835938 -6.8125 1.546875 -7.144531 1.328125 -7.53125 C 1.117188 -7.925781 1.015625 -8.390625 1.015625 -8.921875 C 1.015625 -9.421875 1.132812 -9.890625 1.375 -10.328125 C 1.613281 -10.773438 1.9375 -11.164062 2.34375 -11.5 C 2.75 -11.832031 3.222656 -12.097656 3.765625 -12.296875 C 4.304688 -12.492188 4.878906 -12.59375 5.484375 -12.59375 C 6.015625 -12.59375 6.519531 -12.515625 7 -12.359375 C 7.488281 -12.210938 7.925781 -12.003906 8.3125 -11.734375 C 8.707031 -11.460938 9.035156 -11.132812 9.296875 -10.75 C 9.566406 -10.375 9.742188 -9.957031 9.828125 -9.5 L 7.578125 -8.953125 C 7.472656 -9.367188 7.25 -9.710938 6.90625 -9.984375 C 6.5625 -10.265625 6.085938 -10.40625 5.484375 -10.40625 C 5.273438 -10.40625 5.054688 -10.375 4.828125 -10.3125 C 4.609375 -10.25 4.40625 -10.15625 4.21875 -10.03125 C 4.03125 -9.914062 3.867188 -9.769531 3.734375 -9.59375 C 3.609375 -9.425781 3.546875 -9.226562 3.546875 -9 C 3.546875 -8.757812 3.617188 -8.550781 3.765625 -8.375 C 3.910156 -8.207031 4.085938 -8.066406 4.296875 -7.953125 C 4.503906 -7.835938 4.726562 -7.742188 4.96875 -7.671875 C 5.207031 -7.609375 5.429688 -7.550781 5.640625 -7.5 C 6.554688 -7.28125 7.316406 -7.039062 7.921875 -6.78125 C 8.523438 -6.519531 9.003906 -6.234375 9.359375 -5.921875 C 9.722656 -5.609375 9.976562 -5.265625 10.125 -4.890625 C 10.269531 -4.523438 10.34375 -4.109375 10.34375 -3.640625 C 10.34375 -3.097656 10.21875 -2.582031 9.96875 -2.09375 C 9.71875 -1.613281 9.375 -1.195312 8.9375 -0.84375 C 8.5 -0.488281 7.972656 -0.210938 7.359375 -0.015625 C 6.742188 0.179688 6.082031 0.28125 5.375 0.28125 C 4.3125 0.28125 3.359375 0.0195312 2.515625 -0.5 C 1.679688 -1.03125 1.117188 -1.734375 0.828125 -2.609375 L 2.953125 -3.578125 C 3.222656 -2.972656 3.570312 -2.5625 4 -2.34375 C 4.4375 -2.125 4.929688 -2.015625 5.484375 -2.015625 C 6.171875 -2.015625 6.75 -2.207031 7.21875 -2.59375 Z M 7.21875 -2.59375 "/></g></g></g><g fill="#2f3336" fill-opacity="1"><g transform="translate(129.24293, 268.967209)"><g><path d="M 4.9375 -1.765625 C 5.050781 -1.859375 5.144531 -1.960938 5.21875 -2.078125 C 5.300781 -2.203125 5.34375 -2.34375 5.34375 -2.5 C 5.34375 -2.6875 5.273438 -2.84375 5.140625 -2.96875 C 5.003906 -3.101562 4.835938 -3.210938 4.640625 -3.296875 C 4.453125 -3.390625 4.25 -3.457031 4.03125 -3.5 C 3.820312 -3.550781 3.648438 -3.59375 3.515625 -3.625 C 3.117188 -3.726562 2.75 -3.847656 2.40625 -3.984375 C 2.0625 -4.117188 1.765625 -4.28125 1.515625 -4.46875 C 1.265625 -4.664062 1.0625 -4.894531 0.90625 -5.15625 C 0.757812 -5.425781 0.6875 -5.742188 0.6875 -6.109375 C 0.6875 -6.453125 0.769531 -6.773438 0.9375 -7.078125 C 1.101562 -7.378906 1.320312 -7.644531 1.59375 -7.875 C 1.875 -8.101562 2.203125 -8.285156 2.578125 -8.421875 C 2.953125 -8.554688 3.34375 -8.625 3.75 -8.625 C 4.125 -8.625 4.472656 -8.570312 4.796875 -8.46875 C 5.128906 -8.363281 5.425781 -8.21875 5.6875 -8.03125 C 5.957031 -7.851562 6.179688 -7.632812 6.359375 -7.375 C 6.546875 -7.113281 6.671875 -6.820312 6.734375 -6.5 L 5.1875 -6.125 C 5.113281 -6.414062 4.957031 -6.65625 4.71875 -6.84375 C 4.488281 -7.03125 4.164062 -7.125 3.75 -7.125 C 3.613281 -7.125 3.46875 -7.101562 3.3125 -7.0625 C 3.15625 -7.019531 3.007812 -6.957031 2.875 -6.875 C 2.75 -6.789062 2.640625 -6.6875 2.546875 -6.5625 C 2.460938 -6.445312 2.421875 -6.316406 2.421875 -6.171875 C 2.421875 -6.003906 2.472656 -5.859375 2.578125 -5.734375 C 2.679688 -5.617188 2.800781 -5.519531 2.9375 -5.4375 C 3.082031 -5.363281 3.238281 -5.300781 3.40625 -5.25 C 3.570312 -5.207031 3.722656 -5.171875 3.859375 -5.140625 C 4.484375 -4.984375 5.003906 -4.816406 5.421875 -4.640625 C 5.835938 -4.460938 6.164062 -4.265625 6.40625 -4.046875 C 6.65625 -3.835938 6.832031 -3.609375 6.9375 -3.359375 C 7.039062 -3.109375 7.09375 -2.820312 7.09375 -2.5 C 7.09375 -2.125 7.003906 -1.769531 6.828125 -1.4375 C 6.660156 -1.101562 6.425781 -0.816406 6.125 -0.578125 C 5.820312 -0.335938 5.457031 -0.148438 5.03125 -0.015625 C 4.613281 0.117188 4.164062 0.1875 3.6875 0.1875 C 2.957031 0.1875 2.304688 0.0078125 1.734375 -0.34375 C 1.160156 -0.707031 0.769531 -1.191406 0.5625 -1.796875 L 2.015625 -2.4375 C 2.203125 -2.03125 2.441406 -1.75 2.734375 -1.59375 C 3.035156 -1.445312 3.375 -1.375 3.75 -1.375 C 4.226562 -1.375 4.625 -1.503906 4.9375 -1.765625 Z M 4.9375 -1.765625 "/></g></g></g><g fill="#2f3336" fill-opacity="1"><g transform="translate(143.627469, 268.967209)"><g><path d="M 2.78125 0 L 1.0625 0 L 1.0625 -8.484375 L 2.765625 -8.484375 Z M 1.90625 -10.328125 C 1.601562 -10.328125 1.34375 -10.4375 1.125 -10.65625 C 0.914062 -10.875 0.8125 -11.140625 0.8125 -11.453125 C 0.8125 -11.753906 0.914062 -12.007812 1.125 -12.21875 C 1.34375 -12.4375 1.601562 -12.546875 1.90625 -12.546875 C 2.21875 -12.546875 2.476562 -12.4375 2.6875 -12.21875 C 2.90625 -12.007812 3.015625 -11.753906 3.015625 -11.453125 C 3.015625 -11.140625 2.90625 -10.875 2.6875 -10.65625 C 2.476562 -10.4375 2.21875 -10.328125 1.90625 -10.328125 Z M 1.90625 -10.328125 "/></g></g></g><g fill="#2f3336" fill-opacity="1"><g transform="translate(154.115791, 268.967209)"><g><path d="M 2.671875 0 L 0.953125 0 L 0.953125 -8.484375 L 2.328125 -8.484375 L 2.671875 -7.75 C 2.953125 -8.019531 3.296875 -8.242188 3.703125 -8.421875 C 4.109375 -8.597656 4.546875 -8.6875 5.015625 -8.6875 C 5.316406 -8.6875 5.660156 -8.640625 6.046875 -8.546875 C 6.441406 -8.453125 6.804688 -8.273438 7.140625 -8.015625 C 7.484375 -7.753906 7.769531 -7.390625 8 -6.921875 C 8.226562 -6.460938 8.34375 -5.867188 8.34375 -5.140625 L 8.34375 0 L 6.71875 0 L 6.71875 -5.15625 C 6.71875 -5.519531 6.660156 -5.828125 6.546875 -6.078125 C 6.429688 -6.335938 6.28125 -6.539062 6.09375 -6.6875 C 5.914062 -6.84375 5.710938 -6.953125 5.484375 -7.015625 C 5.253906 -7.085938 5.015625 -7.125 4.765625 -7.125 C 4.578125 -7.125 4.359375 -7.085938 4.109375 -7.015625 C 3.867188 -6.941406 3.644531 -6.828125 3.4375 -6.671875 C 3.226562 -6.515625 3.046875 -6.3125 2.890625 -6.0625 C 2.742188 -5.820312 2.671875 -5.523438 2.671875 -5.171875 Z M 2.671875 0 "/></g></g></g><g fill="#2f3336" fill-opacity="1"><g transform="translate(170.342185, 268.967209)"><g><path d="M 4.890625 0.21875 C 4.296875 0.21875 3.742188 0.101562 3.234375 -0.125 C 2.722656 -0.363281 2.273438 -0.679688 1.890625 -1.078125 C 1.503906 -1.484375 1.195312 -1.957031 0.96875 -2.5 C 0.75 -3.039062 0.640625 -3.617188 0.640625 -4.234375 C 0.640625 -4.847656 0.75 -5.425781 0.96875 -5.96875 C 1.195312 -6.507812 1.503906 -6.976562 1.890625 -7.375 C 2.273438 -7.78125 2.722656 -8.097656 3.234375 -8.328125 C 3.742188 -8.566406 4.296875 -8.6875 4.890625 -8.6875 C 5.578125 -8.6875 6.207031 -8.53125 6.78125 -8.21875 C 7.363281 -7.914062 7.847656 -7.5 8.234375 -6.96875 L 7.03125 -6.03125 C 6.800781 -6.363281 6.503906 -6.628906 6.140625 -6.828125 C 5.773438 -7.023438 5.390625 -7.125 4.984375 -7.125 C 4.628906 -7.125 4.289062 -7.050781 3.96875 -6.90625 C 3.644531 -6.757812 3.363281 -6.554688 3.125 -6.296875 C 2.894531 -6.035156 2.710938 -5.726562 2.578125 -5.375 C 2.441406 -5.019531 2.375 -4.640625 2.375 -4.234375 C 2.375 -3.828125 2.441406 -3.445312 2.578125 -3.09375 C 2.710938 -2.738281 2.894531 -2.425781 3.125 -2.15625 C 3.363281 -1.894531 3.644531 -1.6875 3.96875 -1.53125 C 4.289062 -1.382812 4.628906 -1.3125 4.984375 -1.3125 C 5.441406 -1.3125 5.859375 -1.4375 6.234375 -1.6875 C 6.609375 -1.9375 6.914062 -2.265625 7.15625 -2.671875 L 8.328125 -1.640625 C 7.953125 -1.078125 7.460938 -0.625 6.859375 -0.28125 C 6.253906 0.0507812 5.597656 0.21875 4.890625 0.21875 Z M 4.890625 0.21875 "/></g></g></g><g fill="#2f3336" fill-opacity="1"><g transform="translate(186.108113, 268.967209)"><g><path d="M 5.015625 0.21875 C 4.398438 0.21875 3.820312 0.101562 3.28125 -0.125 C 2.75 -0.363281 2.28125 -0.679688 1.875 -1.078125 C 1.476562 -1.484375 1.160156 -1.957031 0.921875 -2.5 C 0.691406 -3.039062 0.578125 -3.617188 0.578125 -4.234375 C 0.578125 -4.847656 0.6875 -5.425781 0.90625 -5.96875 C 1.125 -6.507812 1.421875 -6.976562 1.796875 -7.375 C 2.171875 -7.78125 2.601562 -8.097656 3.09375 -8.328125 C 3.59375 -8.566406 4.128906 -8.6875 4.703125 -8.6875 C 5.273438 -8.6875 5.804688 -8.582031 6.296875 -8.375 C 6.785156 -8.175781 7.207031 -7.863281 7.5625 -7.4375 C 7.925781 -7.007812 8.207031 -6.46875 8.40625 -5.8125 C 8.613281 -5.164062 8.71875 -4.382812 8.71875 -3.46875 L 2.40625 -3.46875 C 2.488281 -3.164062 2.617188 -2.878906 2.796875 -2.609375 C 2.972656 -2.347656 3.179688 -2.117188 3.421875 -1.921875 C 3.671875 -1.722656 3.945312 -1.570312 4.25 -1.46875 C 4.550781 -1.363281 4.863281 -1.3125 5.1875 -1.3125 C 5.632812 -1.3125 6.050781 -1.394531 6.4375 -1.5625 C 6.820312 -1.726562 7.148438 -1.945312 7.421875 -2.21875 L 8.484375 -1.15625 C 8.066406 -0.738281 7.5625 -0.40625 6.96875 -0.15625 C 6.375 0.09375 5.722656 0.21875 5.015625 0.21875 Z M 4.703125 -7.125 C 4.421875 -7.125 4.160156 -7.066406 3.921875 -6.953125 C 3.679688 -6.847656 3.457031 -6.703125 3.25 -6.515625 C 3.039062 -6.328125 2.863281 -6.101562 2.71875 -5.84375 C 2.570312 -5.582031 2.460938 -5.300781 2.390625 -5 L 6.875 -5 C 6.851562 -5.28125 6.785156 -5.550781 6.671875 -5.8125 C 6.566406 -6.070312 6.421875 -6.296875 6.234375 -6.484375 C 6.046875 -6.679688 5.820312 -6.835938 5.5625 -6.953125 C 5.3125 -7.066406 5.023438 -7.125 4.703125 -7.125 Z M 4.703125 -7.125 "/></g></g></g><g fill="#2f3336" fill-opacity="1"><g transform="translate(202.263672, 268.967209)"><g><path d="M 0.796875 0 L 0.796875 -1.234375 L 4.40625 -5.34375 C 4.957031 -6 5.390625 -6.507812 5.703125 -6.875 C 6.023438 -7.238281 6.269531 -7.53125 6.4375 -7.75 C 6.601562 -7.976562 6.707031 -8.175781 6.75 -8.34375 C 6.800781 -8.507812 6.828125 -8.722656 6.828125 -8.984375 C 6.828125 -9.640625 6.628906 -10.132812 6.234375 -10.46875 C 5.847656 -10.8125 5.375 -10.984375 4.8125 -10.984375 C 4.53125 -10.984375 4.269531 -10.925781 4.03125 -10.8125 C 3.789062 -10.707031 3.578125 -10.554688 3.390625 -10.359375 C 3.210938 -10.171875 3.066406 -9.957031 2.953125 -9.71875 C 2.847656 -9.488281 2.796875 -9.242188 2.796875 -8.984375 L 1 -8.984375 C 1 -9.492188 1.097656 -9.972656 1.296875 -10.421875 C 1.492188 -10.878906 1.765625 -11.28125 2.109375 -11.625 C 2.460938 -11.96875 2.867188 -12.238281 3.328125 -12.4375 C 3.785156 -12.632812 4.28125 -12.734375 4.8125 -12.734375 C 5.34375 -12.734375 5.835938 -12.632812 6.296875 -12.4375 C 6.765625 -12.238281 7.171875 -11.96875 7.515625 -11.625 C 7.859375 -11.28125 8.128906 -10.878906 8.328125 -10.421875 C 8.523438 -9.972656 8.625 -9.492188 8.625 -8.984375 C 8.625 -8.609375 8.570312 -8.238281 8.46875 -7.875 C 8.375 -7.507812 8.210938 -7.191406 7.984375 -6.921875 L 3.546875 -1.71875 L 8.890625 -1.71875 L 8.890625 0 Z M 0.796875 0 "/></g></g></g><g fill="#2f3336" fill-opacity="1"><g transform="translate(218.791134, 268.967209)"><g><path d="M 5.046875 0.171875 C 4.429688 0.171875 3.851562 0.03125 3.3125 -0.25 C 2.78125 -0.539062 2.304688 -0.953125 1.890625 -1.484375 C 1.503906 -2.003906 1.195312 -2.597656 0.96875 -3.265625 C 0.75 -3.941406 0.640625 -4.664062 0.640625 -5.4375 L 0.640625 -6.984375 C 0.640625 -7.828125 0.742188 -8.597656 0.953125 -9.296875 C 1.171875 -9.992188 1.46875 -10.597656 1.84375 -11.109375 C 2.21875 -11.628906 2.679688 -12.023438 3.234375 -12.296875 C 3.785156 -12.578125 4.390625 -12.71875 5.046875 -12.71875 C 5.703125 -12.71875 6.300781 -12.582031 6.84375 -12.3125 C 7.394531 -12.039062 7.859375 -11.644531 8.234375 -11.125 C 8.617188 -10.613281 8.921875 -10.003906 9.140625 -9.296875 C 9.367188 -8.597656 9.484375 -7.828125 9.484375 -6.984375 L 9.484375 -5.4375 C 9.484375 -4.625 9.363281 -3.875 9.125 -3.1875 C 8.894531 -2.507812 8.585938 -1.921875 8.203125 -1.421875 C 7.796875 -0.910156 7.320312 -0.515625 6.78125 -0.234375 C 6.25 0.0351562 5.671875 0.171875 5.046875 0.171875 Z M 2.4375 -5.4375 C 2.4375 -4.863281 2.507812 -4.328125 2.65625 -3.828125 C 2.800781 -3.328125 3.007812 -2.898438 3.28125 -2.546875 C 3.507812 -2.242188 3.773438 -2.003906 4.078125 -1.828125 C 4.378906 -1.660156 4.703125 -1.578125 5.046875 -1.578125 C 5.441406 -1.578125 5.796875 -1.671875 6.109375 -1.859375 C 6.429688 -2.046875 6.707031 -2.304688 6.9375 -2.640625 C 7.164062 -2.984375 7.34375 -3.390625 7.46875 -3.859375 C 7.601562 -4.335938 7.671875 -4.863281 7.671875 -5.4375 L 7.671875 -6.984375 C 7.671875 -8.328125 7.398438 -9.359375 6.859375 -10.078125 C 6.398438 -10.671875 5.796875 -10.96875 5.046875 -10.96875 C 4.296875 -10.96875 3.6875 -10.664062 3.21875 -10.0625 C 2.695312 -9.363281 2.4375 -8.335938 2.4375 -6.984375 Z M 2.4375 -5.4375 "/></g></g></g><g fill="#2f3336" fill-opacity="1"><g transform="translate(235.832198, 268.967209)"><g><path d="M 0.796875 0 L 0.796875 -1.234375 L 4.40625 -5.34375 C 4.957031 -6 5.390625 -6.507812 5.703125 -6.875 C 6.023438 -7.238281 6.269531 -7.53125 6.4375 -7.75 C 6.601562 -7.976562 6.707031 -8.175781 6.75 -8.34375 C 6.800781 -8.507812 6.828125 -8.722656 6.828125 -8.984375 C 6.828125 -9.640625 6.628906 -10.132812 6.234375 -10.46875 C 5.847656 -10.8125 5.375 -10.984375 4.8125 -10.984375 C 4.53125 -10.984375 4.269531 -10.925781 4.03125 -10.8125 C 3.789062 -10.707031 3.578125 -10.554688 3.390625 -10.359375 C 3.210938 -10.171875 3.066406 -9.957031 2.953125 -9.71875 C 2.847656 -9.488281 2.796875 -9.242188 2.796875 -8.984375 L 1 -8.984375 C 1 -9.492188 1.097656 -9.972656 1.296875 -10.421875 C 1.492188 -10.878906 1.765625 -11.28125 2.109375 -11.625 C 2.460938 -11.96875 2.867188 -12.238281 3.328125 -12.4375 C 3.785156 -12.632812 4.28125 -12.734375 4.8125 -12.734375 C 5.34375 -12.734375 5.835938 -12.632812 6.296875 -12.4375 C 6.765625 -12.238281 7.171875 -11.96875 7.515625 -11.625 C 7.859375 -11.28125 8.128906 -10.878906 8.328125 -10.421875 C 8.523438 -9.972656 8.625 -9.492188 8.625 -8.984375 C 8.625 -8.609375 8.570312 -8.238281 8.46875 -7.875 C 8.375 -7.507812 8.210938 -7.191406 7.984375 -6.921875 L 3.546875 -1.71875 L 8.890625 -1.71875 L 8.890625 0 Z M 0.796875 0 "/></g></g></g><g fill="#2f3336" fill-opacity="1"><g transform="translate(252.359661, 268.967209)"><g><path d="M 1.34375 -2.296875 L 0.765625 -3.203125 L 7.328125 -12.5625 L 8.8125 -12.5625 L 8.8125 -3.96875 L 10.828125 -3.96875 L 10.828125 -2.296875 L 8.8125 -2.296875 L 8.8125 0 L 6.953125 0 L 6.953125 -2.296875 Z M 3.421875 -3.96875 L 6.90625 -3.96875 L 6.90625 -9.015625 Z M 3.421875 -3.96875 "/></g></g></g></svg>